<svg width="697" height="1000" viewBox="0 0 697 1000" fill="none" xmlns="http://www.w3.org/2000/svg">
<g clip-path="url(#clip0_3229_73)">
<path d="M697 1000L697 0L0 3.04668e-05L4.37114e-05 1000L697 1000Z" fill="#F0282D"/>
<path d="M697 337.838L697 0L0 3.04668e-05L1.47674e-05 337.838L697 337.838Z" fill="white"/>
<path d="M697 337.838L697 835.135C627.33 842.758 556.836 835.555 490.145 814C423.453 792.445 362.072 757.024 310.028 710.063C257.985 663.102 216.456 605.662 188.167 541.512C159.878 477.362 145.468 407.952 145.884 337.838L697 337.838Z" fill="#0078D0"/>
<path d="M697 337.838L697 -159.216C627.331 -166.835 556.838 -159.636 490.148 -138.091C423.457 -116.547 362.077 -81.1435 310.034 -34.2053C257.992 12.7328 216.463 70.145 188.175 134.264C159.886 198.382 145.477 267.758 145.892 337.838L697 337.838Z" fill="#FFB114"/>
</g>
<defs>
<clipPath id="clip0_3229_73">
<rect width="1000" height="697" fill="white" transform="translate(697) rotate(90)"/>
</clipPath>
</defs>
</svg>
